<?xml version="1.0" encoding="UTF-8"?>
<!DOCTYPE svg PUBLIC "-//W3C//DTD SVG 1.1//EN" "http://www.w3.org/Graphics/SVG/1.1/DTD/svg11.dtd">
<!-- Creator: CorelDRAW 2019 (64-Bit) -->
<svg xmlns="http://www.w3.org/2000/svg" xml:space="preserve" width="200px" height="80px" version="1.1" style="shape-rendering:geometricPrecision; text-rendering:geometricPrecision; image-rendering:optimizeQuality; fill-rule:evenodd; clip-rule:evenodd"
viewBox="0 0 200 80"
 xmlns:xlink="http://www.w3.org/1999/xlink"
 xmlns:xodm="http://www.corel.com/coreldraw/odm/2003">
 <defs>
  <style type="text/css">
   <![CDATA[
    .fil1 {fill:#FEFEFE;fill-rule:nonzero}
    .fil0 {fill:#9F9F9F;fill-rule:nonzero}
   ]]>
  </style>
 </defs>
 <g id="Layer_x0020_1">
  <metadata id="CorelCorpID_0Corel-Layer"/>
  <g id="_1921278716928">
   <g>
    <polygon class="fil0" points="57.05,30.74 71.89,30.74 71.89,34.52 61.36,34.52 61.36,40.41 69.93,40.41 69.93,44.15 61.36,44.15 61.36,53.04 57.05,53.04 "/>
    <path class="fil0" d="M82.18 45.3c-4.11,0.49 -5.61,1.32 -5.61,3.06 0,1.25 0.97,2.14 2.47,2.14 1.32,0 2.39,-0.6 3.14,-1.42l0 -3.78zm0 5.84c-1.18,1.43 -2.61,2.43 -4.64,2.43 -2.96,0 -5.1,-2.03 -5.1,-4.64 0,-3.03 2.21,-5.6 9.74,-5.85l0 -0.39c0,-2.21 -0.93,-3.14 -3.29,-3.14 -1.67,0 -3.71,0.75 -5.46,1.75l-0.85 -3.32c1.6,-1 4.17,-1.93 6.88,-1.93 5.07,0 7.03,2.25 6.92,6.78l0 5.89c0,1.25 0.22,1.43 1.47,1.5l-0.32 3.17c-3.14,0.36 -4.61,-0.6 -5.21,-2.25l-0.14 0z"/>
    <path class="fil0" d="M97.65 53.57c-5.35,0 -8.53,-3.32 -8.53,-8.7 0,-5.35 3.5,-8.82 8.67,-8.82 2.25,0 4.18,0.51 5.67,1.4l-0.89 3.39c-1.36,-0.86 -2.92,-1.32 -4.46,-1.32 -3.03,0 -4.67,2.07 -4.67,5.24 0,3.35 1.89,5.32 4.67,5.32 1.71,0 3.29,-0.47 4.57,-1.29l0.68 3.42c-1.43,0.86 -3.5,1.36 -5.71,1.36z"/>
    <path class="fil0" d="M116.19 43.12l0 -0.29c0,-2.21 -0.97,-3.6 -3.14,-3.6 -2.32,0 -3.71,1.89 -3.93,3.92l7.07 -0.03zm-7.18 2.6c0.18,2.68 2,4.5 4.93,4.5 1.75,0 3.64,-0.57 5.14,-1.5l0.53 3.49c-1.57,0.86 -3.75,1.36 -5.96,1.36 -5.28,0 -8.77,-3.35 -8.77,-8.6 0,-5.35 3.56,-8.92 8.49,-8.92 4.35,0 6.77,2.64 6.77,6.68 0,0.89 -0.14,2.03 -0.35,2.74 -0.04,0 -10.78,0.15 -10.78,0.15l0 0.1z"/>
    <path class="fil0" d="M130.74 39.59c-1.39,0 -2.46,0.53 -3.39,1.35l0 8.32c0.79,0.6 1.86,0.92 3.11,0.92 2.81,0 4.42,-2.28 4.42,-5.35 0,-3.21 -1.53,-5.24 -4.14,-5.24zm0.11 13.95c-1.07,0 -2.61,-0.22 -3.68,-0.57l-4.03 0.6 0 -24.37 4.21 -0.57 0 9.53c1.11,-1.07 2.61,-2.1 4.6,-2.1 4.35,0 7.21,3.53 7.21,8.59 0,5.25 -3.64,8.89 -8.31,8.89z"/>
    <path class="fil0" d="M149.54 39.41c-2.75,0 -4.25,2.21 -4.25,5.38 0,3.15 1.57,5.36 4.32,5.36 2.71,0 4.21,-2.14 4.21,-5.32 0,-3.17 -1.57,-5.42 -4.28,-5.42zm-0.07 14.16c-4.82,0 -8.32,-3.28 -8.32,-8.74 0,-5.42 3.68,-8.81 8.53,-8.81 4.85,0 8.31,3.35 8.31,8.77 0,5.39 -3.71,8.78 -8.52,8.78z"/>
    <path class="fil0" d="M168.42 39.41c-2.75,0 -4.25,2.21 -4.25,5.38 0,3.15 1.57,5.36 4.32,5.36 2.71,0 4.21,-2.14 4.21,-5.32 0,-3.17 -1.57,-5.42 -4.28,-5.42zm-0.07 14.16c-4.82,0 -8.32,-3.28 -8.32,-8.74 0,-5.42 3.68,-8.81 8.53,-8.81 4.85,0 8.31,3.35 8.31,8.77 0,5.39 -3.71,8.78 -8.52,8.78z"/>
    <polygon class="fil0" points="183.98,45.12 183.98,53.04 179.77,53.04 179.77,29.2 183.98,28.63 183.98,43.9 184.06,43.9 189.94,36.59 194.97,36.59 188.16,44.4 195,53.03 195,53.04 189.98,53.04 184.06,45.12 "/>
   </g>
   <g>
    <path class="fil0" d="M37.13 23l-30.25 0c-1.04,0 -1.88,0.84 -1.88,1.87l0 30.26c0,1.03 0.84,1.87 1.88,1.87l30.25 0c1.04,0 1.88,-0.84 1.88,-1.87l0 -30.26c0,-1.03 -0.84,-1.87 -1.88,-1.87z"/>
    <path class="fil1" d="M32.88 43.83l0.67 -5.13 -5.09 0 0 -3.28c0,-1.48 0.42,-2.49 2.55,-2.49l2.72 0 0 -4.6c-0.47,-0.06 -2.09,-0.2 -3.96,-0.2 -3.92,0 -6.61,2.39 -6.61,6.79l0 3.78 -4.43 0 0 5.13 4.43 0 0 13.17 5.3 0 0 -13.17 4.42 0z"/>
   </g>
  </g>
 </g>
</svg>
