<?xml version="1.0" encoding="UTF-8"?>
<!DOCTYPE svg PUBLIC "-//W3C//DTD SVG 1.1//EN" "http://www.w3.org/Graphics/SVG/1.1/DTD/svg11.dtd">
<!-- Creator: CorelDRAW 2019 (64-Bit) -->
<svg xmlns="http://www.w3.org/2000/svg" xml:space="preserve" width="200px" height="80px" version="1.1" style="shape-rendering:geometricPrecision; text-rendering:geometricPrecision; image-rendering:optimizeQuality; fill-rule:evenodd; clip-rule:evenodd"
viewBox="0 0 200 80"
 xmlns:xlink="http://www.w3.org/1999/xlink"
 xmlns:xodm="http://www.corel.com/coreldraw/odm/2003">
 <defs>
  <style type="text/css">
   <![CDATA[
    .fil0 {fill:#9F9F9F}
   ]]>
  </style>
 </defs>
 <g id="Layer_x0020_1">
  <metadata id="CorelCorpID_0Corel-Layer"/>
  <path class="fil0" d="M19.66 62.76l11.45 -0.01 0.03 -26.19 10.81 -0.13c0.77,0.27 0.06,-0.23 0.52,0.42l-0.01 26.07c2.13,0.04 10.16,0.3 11.62,-0.2l-0.02 -36.02 -22.8 -0.02c-0.06,-3.24 0.08,-5.21 2.96,-5.91 1.86,-0.45 6.01,-0.08 8.25,-0.21l0.02 -9.75c-5.57,-0.56 -13.06,-0.32 -17.15,2.16 -4.37,2.65 -5.74,6.75 -5.71,13.71l-6.7 0.05 -0.01 9.78 6.69 0.05 0.05 26.2zm118.76 0.13c0.35,-2.23 0.09,-6.84 0.09,-9.33 -0.01,-14.71 -1.33,-17.16 10.99,-17.01l0.02 26.37 11.8 0.01c0.1,-6.27 -0.33,-13.21 0.04,-19.35 0.59,-9.56 8.22,-6.35 12.18,-7.19l0.11 -9.69c-2.73,-0.01 -5.78,-0.26 -8.07,0.73 -1.56,0.67 -3.73,2.97 -4.22,4.46l-0.16 -5.19c-4.62,0 -9.25,-0.01 -13.87,-0.01 -7.15,0.02 -7.18,3.6 -8.8,4.88l-0.07 -4.86 -11.74 -0.02c-0.32,5.75 -0.04,12.32 -0.04,18.16 0,3.18 -0.4,16 0.14,18.08l11.6 -0.04zm-38.82 -22.31c0.26,-3.63 2.76,-5.82 6.63,-5.79 3.4,0.02 6.52,2.49 6.38,5.88l-13.01 -0.09zm24.36 6.99c1.03,-11.2 -4.01,-19.22 -13.52,-21.07 -24.9,-4.84 -29.66,28.85 -10.62,35.65 8.71,3.12 20.5,-0.17 23.49,-8.89l-10.28 -2.87c-1.43,1.6 -0.58,1.78 -3.04,2.86 -3.4,1.51 -9.76,0.67 -10.39,-5.69l24.36 0.01zm-69.17 -20.89c0.22,1.61 5.36,15.46 6.33,18.08 1.12,3.03 2.18,5.99 3.23,9.01 0.99,2.84 2.53,6.33 3.19,9.15l10.36 -0.04 12.89 -35.99 -11.76 0c-0.78,3.3 -2.07,6.98 -3.05,10.3 -0.31,1.02 -2.52,9.48 -3.36,10.22l-6.2 -20.71 -11.63 -0.02zm118.82 31.24c0.62,3.46 4.17,6.61 8.47,5.88 9.13,-1.54 7.27,-15.94 -2.61,-14.34 -3.37,0.54 -6.63,4.13 -5.86,8.46zm-153.95 4.84c0.35,0.22 -0.03,0.14 0.56,0.25l2.15 0.02c1,0 2,0 3,0 1.77,0 4.16,0.14 5.86,-0.07 0.65,-2.22 0.17,-22.25 0.17,-26.28 2.25,-0.06 9.32,-0.32 11.07,0.17 -0.46,-0.65 0.25,-0.15 -0.52,-0.42l-10.81 0.13 -0.03 26.19 -11.45 0.01z"/>
 </g>
</svg>
