<?xml version="1.0" encoding="UTF-8"?>
<!DOCTYPE svg PUBLIC "-//W3C//DTD SVG 1.1//EN" "http://www.w3.org/Graphics/SVG/1.1/DTD/svg11.dtd">
<!-- Creator: CorelDRAW 2019 (64-Bit) -->
<svg xmlns="http://www.w3.org/2000/svg" xml:space="preserve" width="200px" height="80px" version="1.1" style="shape-rendering:geometricPrecision; text-rendering:geometricPrecision; image-rendering:optimizeQuality; fill-rule:evenodd; clip-rule:evenodd"
viewBox="0 0 200 80"
 xmlns:xlink="http://www.w3.org/1999/xlink"
 xmlns:xodm="http://www.corel.com/coreldraw/odm/2003">
 <defs>
  <style type="text/css">
   <![CDATA[
    .fil2 {fill:#9F9F9F}
    .fil1 {fill:#9F9F9F;fill-rule:nonzero}
    .fil0 {fill:white;fill-rule:nonzero}
   ]]>
  </style>
 </defs>
 <g id="Layer_x0020_1">
  <metadata id="CorelCorpID_0Corel-Layer"/>
  <g id="_1921037601232">
   <path class="fil0" d="M9.47 64.28c2.3,2.3 5.48,3.72 8.99,3.72 0.64,0 1.28,0 1.93,0 4.4,0 8.8,0 13.19,0 4.4,0 8.79,0 13.18,0 0.76,0 1.52,0 2.28,0 3.51,0 6.69,-1.42 8.99,-3.72 0.9,-0.9 1.66,-1.92 2.25,-3.05 0.94,-1.77 1.47,-3.79 1.47,-5.94 0,-0.6 0,-1.2 0,-1.8 0,-2.8 0,-5.6 0,-8.4 0,-3.98 0,-7.96 0,-11.94 0,-2.48 0,-4.96 0,-7.43 0,-0.34 0,-0.68 0,-1.01 0,-1.85 -0.39,-3.6 -1.1,-5.18 -0.64,-1.43 -1.53,-2.72 -2.62,-3.81 -2.3,-2.3 -5.48,-3.72 -8.99,-3.72 -0.76,0 -1.52,0 -2.28,0 -4.39,0 -8.78,0 -13.18,0 -4.39,0 -8.79,0 -13.19,0 -0.65,0 -1.29,0 -1.93,0 -3.51,0 -6.69,1.42 -8.99,3.72 -1.09,1.09 -1.98,2.38 -2.62,3.81 -0.71,1.58 -1.1,3.33 -1.1,5.18 0,0.33 0,0.67 0,1.01 0,2.47 0,4.95 0,7.43 0,3.98 0,7.96 0,11.94 0,2.8 0,5.6 0,8.4 0,0.6 0,1.2 0,1.8 0,2.15 0.53,4.17 1.47,5.94 0.6,1.13 1.36,2.15 2.25,3.05z"/>
   <path class="fil1" d="M42.44 19.51l-17.38 0c-6.55,0 -11.87,5.31 -11.87,11.87l0 17.38c0,6.55 5.32,11.87 11.87,11.87l17.38 0c6.56,0 11.87,-5.32 11.87,-11.87l0 -17.38c0,-6.56 -5.31,-11.87 -11.87,-11.87zm8.08 29.55l0 0c0,4.35 -3.52,7.88 -7.87,7.88l-17.79 0c-4.35,0 -7.88,-3.53 -7.88,-7.88l0 -17.79c0,-4.35 3.53,-7.87 7.88,-7.87l17.79 0c4.35,0 7.87,3.52 7.87,7.87l0 17.79z"/>
   <path class="fil1" d="M33.75 29.5c-5.89,0 -10.67,4.78 -10.67,10.67 0,5.89 4.78,10.67 10.67,10.67 5.89,0 10.67,-4.78 10.67,-10.67 0,-5.89 -4.78,-10.67 -10.67,-10.67zm0 17.59l0 0c-3.82,0 -6.92,-3.1 -6.92,-6.92 0,-3.82 3.1,-6.92 6.92,-6.92 3.82,0 6.92,3.1 6.92,6.92 0,3.82 -3.1,6.92 -6.92,6.92z"/>
   <path class="fil1" d="M44.78 26.61c-1.38,0 -2.49,1.11 -2.49,2.48 0,1.38 1.11,2.49 2.49,2.49 1.37,0 2.48,-1.11 2.48,-2.49 0,-1.37 -1.11,-2.48 -2.48,-2.48z"/>
   <path class="fil2" d="M72.51 26.51c0.37,-0.1 0.76,-0.04 1.13,0.05 0.55,0.14 1.12,0.29 1.58,0.65 0.23,0.18 0.44,0.45 0.41,0.76 0,5.29 0,10.58 0,15.87 -0.01,1.73 0.1,3.48 -0.22,5.2 -0.24,1.39 -0.78,2.78 -1.78,3.81 -0.33,0.37 -0.7,0.7 -1.14,0.94 -0.37,0.2 -0.77,0.37 -1.2,0.34 -0.1,-0.1 -0.18,-0.23 -0.16,-0.38 0.03,-0.41 0.18,-0.8 0.32,-1.19 0.4,-1.32 0.52,-2.71 0.56,-4.08 0.04,-6.44 0.05,-12.89 0.08,-19.34 0.01,-0.16 -0.01,-0.33 -0.03,-0.49 -0.25,0 -0.41,0.21 -0.57,0.36 -0.78,0.76 -1.42,1.66 -1.88,2.64 -0.6,1.26 -0.9,2.64 -1.03,4.02 -0.11,0.89 -0.03,1.81 0.18,2.69 0.18,0.67 0.45,1.34 0.89,1.89 0.19,0.22 0.26,0.56 0.1,0.81 -0.24,0.25 -0.6,0.12 -0.88,0.03 -0.93,-0.33 -1.73,-0.97 -2.34,-1.73 -0.73,-0.93 -1.04,-2.12 -1.06,-3.29 0.07,-1.03 0.35,-2.03 0.72,-2.99 0.54,-1.42 1.35,-2.74 2.38,-3.86 0.67,-0.7 1.4,-1.34 2.21,-1.88 0.54,-0.34 1.1,-0.67 1.73,-0.83zm34.95 0.26l0 0c0.3,-0.26 0.73,-0.22 1.1,-0.17 0.66,0.1 1.32,0.27 1.93,0.54 0.19,0.07 0.36,0.2 0.51,0.34 -0.06,1.44 -0.12,2.89 -0.2,4.33 1.46,0.06 2.91,0.14 4.36,0.23 0.25,0.01 0.59,0.08 0.63,0.38 0.06,0.45 -0.01,0.93 -0.21,1.33 -0.13,0.21 -0.31,0.46 -0.58,0.45 -1.41,0.02 -2.82,0.07 -4.23,0.09 -0.08,2.02 -0.13,4.05 -0.2,6.08 -0.04,1.85 -0.21,3.7 -0.01,5.55 0.08,0.71 0.18,1.46 0.52,2.1 0.15,0.28 0.41,0.52 0.73,0.56 0.42,0.04 0.83,-0.13 1.14,-0.4 0.5,-0.43 0.84,-1 1.14,-1.58 0.34,-0.66 0.59,-1.37 0.81,-2.08 0.09,-0.32 0.02,-0.64 0.05,-0.96 0.02,-1.7 0.29,-3.4 0.87,-4.99 0.44,-1.16 1.05,-2.3 2.03,-3.09 1.07,-0.89 2.63,-1.19 3.93,-0.64 0.83,0.32 1.51,0.98 1.93,1.77 0.05,-0.37 -0.03,-0.78 0.13,-1.13 0.24,-0.37 0.74,-0.39 1.14,-0.36 0.53,0.06 1.06,0.19 1.53,0.46 0.29,0.16 0.57,0.42 0.58,0.78 -0.09,3.09 -0.22,6.18 -0.12,9.28 0.03,0.67 0.12,1.34 0.27,2 0.12,0.47 0.27,0.98 0.67,1.3 0.37,0.29 0.9,0.2 1.25,-0.08 0.57,-0.44 0.89,-1.1 1.18,-1.74 0.07,-0.18 0.18,-0.37 0.14,-0.58 -0.21,-1.85 -0.25,-3.74 0.05,-5.59 0.21,-1.24 0.59,-2.47 1.23,-3.56 0.65,-1.11 1.59,-2.08 2.76,-2.64 0.23,-0.09 0.46,-0.21 0.71,-0.23 1.15,-0.01 2.35,0.37 3.18,1.21 0.21,0.23 0.39,0.49 0.55,0.76 0.08,-0.35 0,-0.72 0.12,-1.05 0.19,-0.39 0.69,-0.42 1.07,-0.37 0.63,0.11 1.27,0.24 1.83,0.56 0.35,0.2 0.35,0.65 0.33,1 -0.03,3.49 -0.08,6.97 -0.11,10.46 0.79,-1.12 1.52,-2.28 2.14,-3.5 0.76,-1.48 1.4,-3.04 1.72,-4.68 -0.43,-0.39 -0.83,-0.87 -0.95,-1.45 -0.12,-0.48 -0.01,-0.97 0.12,-1.43 0.21,-0.69 0.73,-1.33 1.44,-1.53 0.55,-0.16 1.17,-0.17 1.68,0.1 0.39,0.21 0.61,0.63 0.67,1.05 0.07,0.43 0.01,0.86 -0.08,1.28 0.94,-0.14 1.87,-0.29 2.79,-0.53 0.63,-0.14 1.3,-0.25 1.93,-0.05 0.45,0.13 0.78,0.54 0.88,0.98 0.12,0.48 0.15,1 -0.03,1.46 -0.24,0.62 -0.3,1.29 -0.44,1.93 -0.3,1.71 -0.68,3.46 -0.39,5.2 0.1,0.78 0.26,1.55 0.56,2.28 0.19,0.38 0.43,0.8 0.86,0.94 0.43,0.11 0.87,-0.11 1.2,-0.37 0.54,-0.49 0.9,-1.17 1.07,-1.88 -0.37,-1.82 -0.46,-3.71 -0.16,-5.56 0.21,-1.38 0.6,-2.74 1.27,-3.97 0.53,-0.93 1.26,-1.79 2.24,-2.26 1.08,-0.54 2.43,-0.54 3.49,0.06 0.66,0.34 1.16,0.91 1.53,1.54 0.06,-0.37 -0.04,-0.79 0.16,-1.13 0.3,-0.38 0.85,-0.35 1.28,-0.29 0.63,0.11 1.32,0.26 1.76,0.76 0.28,0.32 0.14,0.76 0.15,1.14 -0.06,2.04 -0.14,4.07 -0.14,6.1 0.02,1.55 -0.05,3.13 0.37,4.64 0.12,0.39 0.28,0.8 0.62,1.05 0.37,0.28 0.91,0.22 1.27,-0.06 0.5,-0.37 0.83,-0.91 1.11,-1.45 0.23,-0.48 0.51,-0.95 0.63,-1.47 0.01,-3.42 0.02,-6.84 0.03,-10.26 -0.02,-0.29 0.08,-0.63 0.37,-0.75 0.21,-0.13 0.46,-0.03 0.68,-0.01 0.61,0.11 1.24,0.13 1.8,0.42 0.21,0.1 0.43,0.28 0.41,0.54 0,1.69 0,3.38 0,5.07 0,0.19 0,0.39 0.02,0.59 0.5,-1.55 1.02,-3.08 1.62,-4.59 0.23,-0.55 0.47,-1.11 0.78,-1.63 0.23,-0.42 0.77,-0.49 1.2,-0.47 0.92,0.07 1.89,0.47 2.37,1.29 0.18,0.3 0.26,0.65 0.26,0.99 -0.02,1.76 0.08,3.52 0.2,5.27 0.04,0.54 0.05,1.09 0.14,1.63 0.06,-0.04 0.09,-0.09 0.1,-0.16 0.18,-1.3 0.51,-2.57 0.87,-3.83 0.41,-1.39 0.87,-2.77 1.44,-4.11 0.15,-0.33 0.29,-0.7 0.64,-0.88 0.49,-0.27 1.08,-0.19 1.59,-0.04 0.58,0.2 1.18,0.41 1.66,0.82 0.34,0.29 0.61,0.7 0.63,1.16 -0.15,2.72 -0.28,5.46 -0.08,8.18 0.06,0.75 0.15,1.5 0.34,2.23 0.11,0.41 0.25,0.82 0.51,1.16 0.25,0.33 0.71,0.51 1.1,0.35 0.35,-0.14 0.58,-0.46 0.76,-0.77 0.4,-0.76 0.52,-1.62 0.75,-2.43 0.06,-0.25 0.17,-0.52 0.43,-0.61 0.19,-0.12 0.39,0.03 0.54,0.14 0.19,0.18 0.13,0.46 0.13,0.7 -0.05,1.31 -0.26,2.68 -1.03,3.78 -0.61,0.91 -1.72,1.5 -2.82,1.37 -1.02,-0.05 -1.96,-0.63 -2.5,-1.48 -0.7,-1.05 -0.97,-2.3 -1.16,-3.53 -0.32,-2.44 -0.24,-4.91 -0.17,-7.37 -0.1,0.07 -0.17,0.17 -0.22,0.27 -0.69,1.37 -1.15,2.84 -1.52,4.33 -0.48,1.93 -0.78,3.9 -0.84,5.89 0.01,0.25 -0.19,0.45 -0.43,0.5 -0.55,0.22 -1.19,0.27 -1.73,0.01 -0.55,-0.26 -0.95,-0.76 -1.2,-1.3 -0.26,-0.56 -0.36,-1.18 -0.45,-1.79 -0.33,-2.52 -0.44,-5.07 -0.56,-7.61 0.01,-0.18 -0.2,-0.06 -0.29,-0.05 -1.24,2.16 -1.87,4.6 -2.19,7.05 -0.19,1.42 -0.26,2.86 -0.28,4.3 0,0.26 -0.14,0.51 -0.37,0.63 -0.42,0.24 -0.93,0.23 -1.4,0.2 -0.57,-0.06 -1.16,-0.11 -1.64,-0.44 -0.2,-0.13 -0.34,-0.36 -0.34,-0.6 -0.04,-0.47 -0.05,-0.94 -0.09,-1.4 -0.25,0.37 -0.47,0.78 -0.78,1.12 -0.48,0.58 -1.12,1.07 -1.87,1.25 -1.05,0.24 -2.24,-0.11 -2.97,-0.92 -0.6,-0.64 -0.92,-1.5 -1.08,-2.35 -0.53,1.15 -1.39,2.19 -2.53,2.78 -0.56,0.3 -1.17,0.47 -1.8,0.53 -0.69,0.08 -1.41,0 -2.03,-0.32 -0.91,-0.46 -1.59,-1.3 -2.01,-2.22 -0.48,1.09 -1.32,2.13 -2.51,2.45 -1.18,0.33 -2.45,-0.16 -3.3,-1 -1.08,-1.05 -1.64,-2.54 -1.81,-4.02 -0.09,-0.71 -0.06,-1.43 -0.01,-2.15 0.11,-1.61 0.28,-3.22 0.7,-4.77 0.01,-0.09 0.01,-0.18 0,-0.26 -0.86,-0.04 -1.72,-0.01 -2.58,0.01 -0.43,1.46 -1.06,2.86 -1.77,4.2 -1.22,2.3 -2.72,4.44 -4.41,6.43 0.02,1.91 0.08,3.82 -0.01,5.73 -0.09,1.51 -0.32,3.04 -0.95,4.44 -0.48,1.03 -1.23,1.97 -2.26,2.52 -0.76,0.42 -1.62,0.64 -2.49,0.7 -1.07,-0.08 -2.19,-0.35 -3.03,-1.06 -0.6,-0.49 -1,-1.19 -1.15,-1.94 -0.12,-0.65 -0.15,-1.33 0.06,-1.97 0.38,-1.19 1.15,-2.22 1.97,-3.15 0.84,-0.94 1.8,-1.76 2.71,-2.63 0.73,-0.68 1.46,-1.36 2.19,-2.04 0.02,-0.53 -0.07,-1.05 -0.08,-1.59 -0.34,0.44 -0.64,0.92 -1.07,1.28 -1.05,1.03 -2.57,1.55 -4.03,1.36 -1.01,-0.18 -1.84,-0.88 -2.45,-1.67 -0.23,-0.29 -0.43,-0.6 -0.61,-0.93 -0.54,1.06 -1.31,2.15 -2.5,2.52 -1.18,0.34 -2.52,-0.15 -3.3,-1.08 -0.51,-0.63 -0.84,-1.4 -0.95,-2.21 -0.5,1.07 -1.26,2.05 -2.28,2.66 -0.65,0.41 -1.4,0.64 -2.17,0.7 -0.83,0.1 -1.69,-0.1 -2.38,-0.57 -1.25,-0.87 -1.85,-2.35 -2.22,-3.77 -0.19,0.63 -0.51,1.22 -0.83,1.8 -0.33,0.51 -0.67,1.02 -1.12,1.44 -0.52,0.51 -1.17,0.91 -1.9,1.01 -0.84,0.11 -1.73,-0.15 -2.38,-0.7 -0.52,-0.44 -0.91,-1.03 -1.19,-1.65 -0.53,-1.14 -0.74,-2.4 -0.84,-3.65 -0.66,1.45 -1.43,2.88 -2.58,4 -0.88,0.9 -1.99,1.58 -3.22,1.88 -0.96,0.25 -1.97,0.22 -2.96,0.13 -0.85,-0.08 -1.72,-0.25 -2.47,-0.68 -0.37,-0.21 -0.74,-0.51 -0.85,-0.94 -0.07,-0.47 0.2,-0.89 0.46,-1.26 0.25,-0.34 0.54,-0.69 0.94,-0.84 0.39,-0.13 0.71,0.18 1.01,0.37 0.46,0.41 0.98,0.77 1.59,0.91 0.6,0.15 1.31,-0.04 1.66,-0.57 0.32,-0.49 0.41,-1.09 0.45,-1.66 -0.01,-1.09 -0.71,-2.01 -1.44,-2.74 -0.68,-0.66 -1.4,-1.28 -2.11,-1.91 -1.01,1.71 -2.09,3.38 -3.1,5.09 -0.61,1.1 -1.35,2.14 -2.28,2.98 -0.68,0.6 -1.48,1.12 -2.4,1.24 -0.61,0.09 -1.23,-0.21 -1.6,-0.69 -0.49,-0.62 -0.7,-1.4 -0.82,-2.17 -0.18,-1.38 -0.11,-2.77 -0.09,-4.15 0.02,-1.76 0.11,-3.52 0.17,-5.28 0.01,-0.37 0.06,-0.75 0.02,-1.13 -0.12,0.03 -0.26,0.03 -0.33,0.14 -1.69,1.9 -2.74,4.25 -3.55,6.63 -0.69,2.08 -1.19,4.22 -1.51,6.39 -0.28,0.22 -0.64,0.28 -0.98,0.22 -0.41,-0.06 -0.83,0 -1.23,-0.09 -0.37,-0.09 -0.62,-0.41 -0.77,-0.74 -0.29,-0.69 -0.33,-1.45 -0.32,-2.19 0.03,-4.16 0.06,-8.32 0.09,-12.48 -0.01,-0.2 0.05,-0.46 0.26,-0.53 0.43,-0.14 0.89,-0.02 1.32,0.07 0.48,0.13 1,0.25 1.36,0.62 0.19,0.17 0.11,0.45 0.12,0.67 -0.01,2.31 -0.04,4.62 -0.03,6.93 0.76,-2.05 1.5,-4.12 2.68,-5.97 0.27,-0.38 0.52,-0.78 0.84,-1.11 0.56,-0.65 1.34,-1.23 2.23,-1.25 0.67,-0.02 1.28,0.29 1.87,0.57 0.54,0.28 1.07,0.68 1.3,1.26 0.14,0.35 0.09,0.73 0.08,1.09 -0.06,1.99 -0.12,3.97 -0.19,5.96 -0.01,0.81 -0.08,1.62 -0.03,2.43 0.02,0.39 0.07,0.78 0.2,1.14 0.09,0.2 0.2,0.44 0.45,0.48 0.22,0.02 0.41,-0.14 0.57,-0.28 0.37,-0.33 0.67,-0.73 0.96,-1.13 0.83,-1.15 1.55,-2.39 2.26,-3.62 0.42,-0.76 0.85,-1.52 1.24,-2.3 -0.14,-0.23 -0.35,-0.41 -0.47,-0.65 -0.46,-0.74 -0.58,-1.67 -0.34,-2.51 0.22,-0.82 0.73,-1.55 1.4,-2.06 0.48,-0.33 1.04,-0.55 1.61,-0.67 0.54,-0.14 1.15,-0.06 1.63,0.24 0.34,0.2 0.51,0.59 0.52,0.97 0.03,0.72 -0.23,1.41 -0.57,2.03 -0.33,0.61 -0.75,1.17 -1.19,1.7 1.42,1.04 2.9,2.03 4.13,3.3 0.64,0.68 1.17,1.51 1.28,2.46 0.08,0.49 0.01,0.98 -0.06,1.47 1.34,-1.17 2.37,-2.77 2.64,-4.54 0.04,-2.71 0.03,-5.43 0.06,-8.14 -1.24,-0.02 -2.48,-0.03 -3.72,-0.06 -0.25,-0.14 -0.3,-0.46 -0.31,-0.72 0,-0.62 0.17,-1.27 0.6,-1.74 0.07,-0.1 0.19,-0.07 0.29,-0.08 1.11,0.01 2.22,0.03 3.32,0.04 0.05,-1.25 0.08,-2.51 0.13,-3.76 0.01,-0.37 0,-0.77 0.25,-1.06zm13.53 10.47l0 0c-0.73,0.15 -1.27,0.73 -1.61,1.36 -0.45,0.85 -0.66,1.8 -0.8,2.75 -0.17,1.23 -0.22,2.48 -0.16,3.72 0.07,0.96 0.2,1.94 0.64,2.81 0.25,0.47 0.63,0.9 1.14,1.09 0.34,0.13 0.73,0.11 1.05,-0.06 0.66,-0.34 1.11,-0.97 1.44,-1.61 0.58,-1.18 0.83,-2.5 0.96,-3.81 0.1,-1.36 0.14,-2.75 -0.18,-4.08 -0.18,-0.64 -0.44,-1.28 -0.94,-1.73 -0.4,-0.38 -0.99,-0.57 -1.54,-0.44zm15.44 0.05l0 0c-0.87,0.24 -1.47,1 -1.86,1.77 -0.57,1.21 -0.8,2.55 -0.9,3.87 -0.07,1.49 -0.08,3.01 0.37,4.44 0.23,0.68 0.63,1.37 1.3,1.68 0.43,0.2 0.94,0.16 1.34,-0.09 0.33,-0.22 0.63,-0.5 0.86,-0.83 0.54,-0.74 0.86,-1.61 1.08,-2.49 0.32,-1.32 0.43,-2.67 0.42,-4.02 -0.01,-0.92 -0.1,-1.85 -0.39,-2.73 -0.18,-0.54 -0.47,-1.08 -0.95,-1.41 -0.36,-0.26 -0.84,-0.32 -1.27,-0.19zm26.8 0.11l0 0c-0.76,0.12 -1.34,0.72 -1.68,1.37 -0.62,1.17 -0.81,2.51 -0.93,3.81 -0.09,1.47 -0.13,2.96 0.21,4.4 0.18,0.7 0.47,1.41 1.04,1.88 0.37,0.3 0.89,0.47 1.36,0.3 0.61,-0.2 1.03,-0.72 1.37,-1.24 0.78,-1.3 1.07,-2.81 1.21,-4.29 0.11,-1.35 0.14,-2.73 -0.19,-4.05 -0.17,-0.65 -0.45,-1.3 -0.96,-1.75 -0.38,-0.35 -0.92,-0.52 -1.43,-0.43zm-24.96 16.26l0 0c-1.35,1.33 -2.59,2.82 -3.34,4.57 -0.27,0.62 -0.41,1.33 -0.22,2 0.13,0.52 0.54,0.96 1.06,1.09 0.65,0.17 1.39,0.17 1.98,-0.19 0.52,-0.35 0.87,-0.92 1.08,-1.5 0.4,-1.13 0.48,-2.34 0.53,-3.53 0.02,-1.16 0.05,-2.32 0.06,-3.48 -0.42,0.3 -0.77,0.69 -1.15,1.04z"/>
  </g>
 </g>
</svg>
