<?xml version="1.0" encoding="UTF-8"?>
<!DOCTYPE svg PUBLIC "-//W3C//DTD SVG 1.1//EN" "http://www.w3.org/Graphics/SVG/1.1/DTD/svg11.dtd">
<!-- Creator: CorelDRAW 2019 (64-Bit) -->
<svg xmlns="http://www.w3.org/2000/svg" xml:space="preserve" width="200px" height="80px" version="1.1" style="shape-rendering:geometricPrecision; text-rendering:geometricPrecision; image-rendering:optimizeQuality; fill-rule:evenodd; clip-rule:evenodd"
viewBox="0 0 200 80"
 xmlns:xlink="http://www.w3.org/1999/xlink"
 xmlns:xodm="http://www.corel.com/coreldraw/odm/2003">
 <defs>
  <style type="text/css">
   <![CDATA[
    .fil0 {fill:#9F9F9F}
   ]]>
  </style>
 </defs>
 <g id="Layer_x0020_1">
  <metadata id="CorelCorpID_0Corel-Layer"/>
  <g id="_1921281896768">
   <path class="fil0" d="M153.72 54.99l-5.7 0.01c-0.32,0 -0.59,0.07 -0.59,-0.27l0 -20.53 6.12 0c0.2,0 0.26,0.06 0.26,0.26 0,2.13 0.14,20.03 -0.09,20.53zm10.7 -10.87l0 10.87 -6.3 0 0 -20.79 6.04 0c0,0.97 -0.13,2.02 0.17,2.59 0.4,-0.09 0.39,-0.24 0.59,-0.53 1.27,-1.78 3.49,-2.66 5.8,-2.66 0.75,0 2.38,0.23 3.03,0.5 0.69,0.3 0.65,0.17 1.18,0.54 0.95,0.66 1.42,1.01 2.08,2.15 1.12,1.94 1.3,5.13 1.3,8.2l0 9.74c0,0.2 -0.06,0.26 -0.26,0.26l-5.87 0c-0.43,0 -0.26,-1.34 -0.26,-2.15 0,-2.67 0.23,-9.72 -0.41,-11.66 -0.18,-0.53 -0.59,-1.12 -1.01,-1.41 -1.54,-1.03 -4.16,-0.7 -5.2,0.83 -0.62,0.91 -0.88,2.31 -0.88,3.52zm-13.8 -13.02c-0.96,0 -1.86,-0.42 -2.53,-1.01 -1.5,-1.33 -1.45,-4.17 0.01,-5.39 1.53,-1.29 3.61,-1.38 5.13,0.07 0.24,0.24 0.62,0.76 0.75,1.06 0.61,1.42 0.35,3.11 -0.75,4.17 -0.58,0.55 -1.52,1.1 -2.61,1.1zm-9.92 -10.01l0 36.92c0,2.19 1.46,3.71 3.45,3.71l37.52 0c0.85,0 1.8,-0.51 2.27,-0.93 0.44,-0.38 1.01,-1.38 1.01,-2.17l0 -38.05c0,-1.28 -0.88,-2.35 -1.98,-2.85 -0.4,-0.18 -0.79,-0.25 -1.38,-0.25l-37.44 0c-1,0 -1.9,0.35 -2.53,1.01 -0.58,0.6 -0.92,1.46 -0.92,2.61z"/>
   <path class="fil0" d="M123.01 39.21c0.86,0 1.56,0.15 2.25,0.42 3.5,1.42 3.74,6.5 1.49,8.74 -1.46,1.45 -4.23,1.71 -5.85,0.97 -1.12,-0.5 -2.03,-1.36 -2.51,-2.49 -0.49,-1.16 -0.64,-2.59 -0.25,-3.81 0.22,-0.68 -0.02,-0.51 0.65,-1.68 0.17,-0.29 0.93,-1.06 1.23,-1.27 0.75,-0.54 1.98,-0.88 2.99,-0.88zm4.75 -8.54l0 4.65c0,0.3 -0.07,0.34 -0.09,0.61 -0.23,-0.17 -0.46,-0.63 -1.19,-1.14 -0.52,-0.35 -0.89,-0.54 -1.51,-0.82 -1.78,-0.8 -4.17,-0.87 -6.24,-0.42 -0.68,0.15 -0.87,0.25 -1.4,0.49l-1.65 0.94c-0.13,0.1 -0.24,0.17 -0.4,0.29 -0.94,0.74 -2.37,2.48 -2.81,3.65 -0.1,0.25 -0.05,0.21 -0.17,0.44 -0.5,0.9 -1.11,3.48 -1.11,4.59l0.09 2.25c0.04,0.55 0.13,0.58 0.22,1.06 0.18,0.89 0.28,1.65 0.77,2.52 0.11,0.2 0.13,0.27 0.22,0.47 0.52,1.15 1.37,2.16 2.27,2.99 0.51,0.46 0.72,0.58 1.31,0.94 2.23,1.33 4.99,1.89 7.69,1.21 0.37,-0.09 0.61,-0.13 0.92,-0.28 0.91,-0.44 1.11,-0.49 1.94,-1.08l0.65 -0.56c0.16,-0.16 0.16,-0.16 0.31,-0.29 0.26,-0.23 0.29,-0.39 0.61,-0.6 0,0.46 0,0.92 0,1.38 0,0.39 -0.16,1.21 0.26,1.21l5.86 0 0 -30.97c0,-0.2 -0.06,-0.26 -0.26,-0.26l-6.03 0c-0.48,0 -0.35,0.89 -0.35,1.38l0.09 5.35z"/>
   <path class="fil0" d="M67.2 24.37l0 30.54c0,0.19 0.06,0.26 0.26,0.26l6.21 0c0.43,0 0.26,-1.54 0.26,-2.33l0 -7.77c0.24,0.16 1.47,2.09 1.74,2.49l4.3 6.4c0.28,0.39 0.69,1.21 0.95,1.21l7.93 0c0.48,0 0.08,-0.43 -0.29,-0.92l-4.28 -5.81c-0.15,-0.22 -0.35,-0.45 -0.54,-0.67l-1.53 -2.09c-0.42,-0.56 -1.48,-1.7 -1.3,-2.08l7.62 -8.6c0.29,-0.31 0.72,-0.71 0.75,-1.06l-8.19 0c-0.1,0.36 -0.82,0.95 -1.06,1.27l-1.31 1.54c-1.03,1.02 -3.47,4.18 -4.5,5.25 -0.23,0.23 0,0.12 -0.29,0.22l0 -17.08c0,-1.62 0.54,-1.2 -3.45,-1.2 -1.06,0 -2.13,0 -3.19,0 -0.05,0.19 -0.09,0.2 -0.09,0.43z"/>
   <path class="fil0" d="M94.46 42.05c0.23,-2.73 3.13,-4.72 6.09,-3.5 0.07,0.03 0.11,0.04 0.18,0.07l0.88 0.59c0.02,0.02 0.03,0.03 0.05,0.05l0.4 0.45c0.39,0.52 0.77,1.38 0.77,2.08 0,0.43 -1.06,0.26 -1.9,0.26l-6.47 0zm-6.82 2.68c0,0.44 0.12,0.76 0.18,1.2 0.06,0.4 0.11,0.79 0.17,1.21 0.1,0.67 0.45,1.58 0.71,2.14 0.41,0.91 0.95,1.78 1.64,2.5 0.52,0.53 0.65,0.79 1.44,1.4 0.85,0.66 0.75,0.57 1.68,1.09 2.69,1.5 6.99,1.9 9.82,0.83 1.97,-0.74 4.14,-1.96 5.33,-3.73 -0.42,-0.22 -0.76,-0.54 -1.16,-0.83l-2.65 -1.92c-0.26,-0.19 -0.55,-0.51 -0.94,-0.61 -0.31,0.29 -0.5,0.63 -0.84,0.97 -0.62,0.61 -1.42,1.08 -2.27,1.35 -1.48,0.46 -3.63,0.11 -4.8,-1.05 -0.2,-0.19 -0.33,-0.32 -0.51,-0.53 -0.01,-0.01 -0.03,-0.03 -0.04,-0.04 -0.01,-0.02 -0.03,-0.04 -0.04,-0.05 -0.24,-0.3 -1.29,-2.04 -0.64,-2.04l14.84 0c0,-2.02 0.11,-3.25 -0.3,-5.22 -0.29,-1.41 -0.5,-2 -1.16,-3.33 -0.62,-1.24 -1.97,-2.58 -3.13,-3.33 -0.58,-0.38 -1.21,-0.64 -1.89,-0.87 -1.67,-0.56 -2.79,-0.62 -4.82,-0.53 -1.86,0.08 -4.5,1.06 -6.04,2.16 -0.61,0.43 -0.96,0.74 -1.49,1.27 -1.21,1.21 -2.02,2.69 -2.56,4.34 -0.23,0.72 -0.53,2.77 -0.53,3.62z"/>
   <path class="fil0" d="M50.12 36.62l-0.17 0c0,-0.03 0.03,-0.27 0.03,-0.27l-0.03 -2.32 -6.47 0 0 20.88c0,0.19 0.06,0.26 0.26,0.26l6.21 0c0.38,0 0.26,-0.54 0.26,-0.95 -0.03,-2.83 -0.1,-8.58 0.09,-10.95 0.06,-0.83 0.26,-1.35 0.51,-1.99 0.16,-0.42 0.14,-0.45 0.45,-0.76 0.88,-0.87 1.32,-1.14 2.92,-1.14 0.73,0 1.34,0.22 1.79,0.53 1.53,1.03 1.4,4.04 1.4,5.85l0 8.46c-0.01,0.41 -0.13,0.95 0.26,0.95l6.21 0c0.2,0 0.26,-0.07 0.26,-0.26 0,-3.2 0.2,-12.63 -0.33,-15.38l-0.44 -1.72c-0.35,-1.06 -0.92,-1.91 -1.71,-2.68 -0.28,-0.27 -0.97,-0.73 -1.35,-0.9 -0.51,-0.24 -1,-0.43 -1.6,-0.55 -1.85,-0.38 -3.87,-0.44 -5.61,0.36l-0.76 0.36c-0.65,0.39 -2,1.47 -2.18,2.22z"/>
   <path class="fil0" d="M11.04 24.02l0 29.42c0,0.82 -0.16,1.73 0.26,1.73l18.98 0c0.2,0 0.26,-0.07 0.26,-0.26l0 -5.96c0,-0.19 -0.06,-0.26 -0.26,-0.26l-12.25 0 0 -24.67c-0.67,-0.15 -6.51,-0.18 -6.99,0z"/>
   <path class="fil0" d="M33.39 34.29l0 20.62c0,0.19 0.06,0.26 0.25,0.26l6.13 0c0.39,0 0.26,-0.62 0.26,-1.04l0 -17.68c0,-0.46 -0.01,-0.93 -0.01,-1.39 0.01,-0.45 0.28,-1.03 -0.16,-1.03l-6.22 0c-0.19,0 -0.25,0.06 -0.25,0.26z"/>
   <path class="fil0" d="M32.87 27.3c0,0.71 0.1,1.19 0.34,1.73 0.23,0.51 0.42,0.72 0.8,1.1 1.54,1.54 3.97,1.52 5.44,0.04 1.57,-1.59 1.58,-3.98 0.04,-5.52 -2.45,-2.45 -6.62,-0.69 -6.62,2.65z"/>
   <path class="fil0" d="M190.13 61.46c-0.67,0 -1.11,-0.01 -1.82,-0.52l-0.09 -0.07c-1.16,-0.96 -1.29,-2.73 -0.13,-3.77 0.07,-0.06 0.1,-0.09 0.18,-0.16 1.52,-1.34 4.1,-0.16 4.1,2.02 0,0.9 -0.6,1.86 -1.35,2.18 -0.23,0.1 -0.68,0.32 -0.89,0.32zm-3.37 -2.67c0,0.49 0.11,0.96 0.26,1.29 0.08,0.18 0.17,0.34 0.27,0.51 0.38,0.6 0.54,0.73 1.24,1.09 1.5,0.77 3.52,-0.02 4.05,-1.21 0.66,-1.49 0.56,-2.49 -0.46,-3.77 -0.87,-1.1 -3.26,-1.18 -4.43,-0.01 -0.43,0.43 -0.93,1.29 -0.93,2.1z"/>
   <path class="fil0" d="M190.21 58.62l-0.86 0 0 -0.87 0.26 0c0.41,0 0.62,0.1 0.95,0.18 0,0.37 0.02,0.69 -0.35,0.69zm-1.46 1.89c0.71,0.17 0.6,0.25 0.6,-1.29 0.73,0 0.64,0.44 1.21,1.29l0.69 0c-0.12,-0.5 -0.53,-0.91 -0.78,-1.29 0.73,-0.35 0.78,-0.37 0.78,-1.29 0,-0.15 -0.23,-0.47 -0.34,-0.54 -0.34,-0.23 -1.41,-0.15 -1.91,-0.15 -0.41,0 -0.25,0.69 -0.25,1.46 0,0.61 0,1.21 0,1.81z"/>
  </g>
 </g>
</svg>
