<?xml version="1.0" encoding="UTF-8"?>
<!DOCTYPE svg PUBLIC "-//W3C//DTD SVG 1.1//EN" "http://www.w3.org/Graphics/SVG/1.1/DTD/svg11.dtd">
<!-- Creator: CorelDRAW 2019 (64-Bit) -->
<svg xmlns="http://www.w3.org/2000/svg" xml:space="preserve" width="200px" height="80px" version="1.1" style="shape-rendering:geometricPrecision; text-rendering:geometricPrecision; image-rendering:optimizeQuality; fill-rule:evenodd; clip-rule:evenodd"
viewBox="0 0 200 80"
 xmlns:xlink="http://www.w3.org/1999/xlink"
 xmlns:xodm="http://www.corel.com/coreldraw/odm/2003">
 <defs>
  <style type="text/css">
   <![CDATA[
    .str0 {stroke:#9F9F9F;stroke-width:0.9;stroke-miterlimit:22.9256}
    .fil1 {fill:#9F9F9F}
    .fil0 {fill:#FEFEFE}
   ]]>
  </style>
 </defs>
 <g id="Layer_x0020_1">
  <metadata id="CorelCorpID_0Corel-Layer"/>
  <g id="_1921281917792">
   <path class="fil0" d="M12.73 33.5c3.53,-0.83 4.67,4.64 1.4,5.43 -3.97,0.96 -5.28,-4.51 -1.4,-5.43zm11.86 0.26c3.49,-1.92 5.88,3.55 2.73,4.99 -3.61,1.64 -5.87,-3.27 -2.73,-4.99zm-6.5 -6.01c-6.33,0.93 -11.68,6.39 -10.63,13.91 0.86,6.19 6.56,11.45 13.91,10.5 6.29,-0.81 11.65,-6.73 10.57,-14.09 -0.88,-6.05 -6.7,-11.37 -13.85,-10.32z"/>
   <path class="fil1" d="M18.09 27.75c7.15,-1.05 12.97,4.27 13.85,10.32 1.08,7.36 -4.28,13.28 -10.57,14.09 -7.35,0.95 -13.05,-4.31 -13.91,-10.5 -1.05,-7.52 4.3,-12.98 10.63,-13.91zm-13.4 10.27c0,4.68 0.21,8.65 4.2,12.64 0.89,0.89 2.72,2.1 3.95,2.73 9.19,4.69 22.03,-1.16 22.03,-13.78 0,-7.86 -7.13,-14.61 -13.66,-14.61 -6.06,0 -9.54,0.85 -13.57,5.81 -1.36,1.68 -2.95,5.2 -2.95,7.21z"/>
   <path class="fil1 str0" d="M84.12 40.25c0,-5.17 5.4,-5.16 5.4,0 0,3.74 -5.4,3.9 -5.4,0zm-0.32 -5.08c-0.47,-1.74 -4.13,-1.81 -4.13,-0.32l0 1.9 1.27 0 0 12.39c0,1.27 0.9,0.96 3.18,0.96l0 -5.4c7.64,5.11 11.59,-7.16 5.84,-10.3 -2.42,-1.31 -4.34,-0.45 -6.16,0.77z"/>
   <path class="fil1" d="M47.26 43.11c-4.93,0 -3.47,-6.67 -0.63,-6.67 4.07,0 3.26,6.67 0.63,6.67zm-3.49 -7.94c-0.47,-1.74 -4.13,-1.81 -4.13,-0.32l0 1.9 1.27 0 0 12.39c0,1.27 0.9,0.96 3.17,0.96l0 -5.4c8.08,5.41 11.71,-8.55 4.94,-10.67 -2.41,-0.76 -3.63,0.05 -5.25,1.14z"/>
   <path class="fil1" d="M144.48 30.4c0,3.46 1.59,0.81 1.59,2.86l0 12.39 2.86 0c0,-7.14 -0.62,-8.9 4.44,-8.9 0.49,2.08 -0.6,8.9 1.91,8.9l2.86 0 0 -2.54c-1.65,-0.14 -1.31,-0.54 -1.27,-3.82 0.03,-2 0.01,-3.04 -0.88,-4.2 -0.84,-1.08 -2.06,-1.42 -3.44,-1.31 -2.04,0.16 -2.43,0.91 -3.62,1.7 0,-6.19 0.63,-6.03 -3.5,-6.03 -0.73,0 -0.95,0.22 -0.95,0.95z"/>
   <path class="fil1" d="M172.75 34.85l0 1.9 1.27 0c0,2.83 -0.87,9.22 3.82,9.22 0.5,0 1.9,-0.35 2.32,-0.54 0.95,-0.43 0.98,-0.81 1.81,-1.37 0.16,1.89 1.37,1.59 3.49,1.59 1.2,0 0.95,-0.74 0.95,-2.54 -2.35,-0.05 -1.58,-0.44 -1.58,-9.21l-2.86 0c0,3.91 0.7,9.21 -3.5,9.21 -0.2,0 -0.91,-0.72 -1.27,-0.95 0,-2.68 0.19,-5.78 -0.32,-7.95 -1.42,-0.12 -4.13,-1.06 -4.13,0.64z"/>
   <path class="fil1" d="M69.18 40.25c0,-4.77 6.36,-5.59 6.36,0 0,4.01 -6.36,3.65 -6.36,0zm-3.17 -0.64c0,1.86 0.83,3.57 1.82,4.54 3.69,3.64 10.88,1.04 10.88,-3.27l0 -1.58c0,-4.94 -6.94,-7.45 -10.58,-3.91 -0.98,0.96 -2.12,2.46 -2.12,4.22z"/>
   <path class="fil1" d="M162.27 39.93c0,-4.16 6.35,-5.4 6.35,0.32 0,3.78 -6.35,4.01 -6.35,-0.32zm-3.18 -0.32c0,1.86 0.84,3.57 1.82,4.54 2.19,2.15 6.53,2.44 8.92,0.17 4.28,-4.07 1.27,-10.92 -4.62,-10.58 -3.31,0.19 -6.12,2.55 -6.12,5.87z"/>
   <path class="fil1" d="M107.94 38.34l-4.45 0c0.64,-2.74 4.2,-3.05 4.45,0zm-7.94 1.27c0,6.85 8.38,7.76 10.8,4.45 -0.23,-0.98 -0.4,-0.92 -0.63,-1.9 -1.05,0.08 -5.83,3.09 -6.99,-1.91l7.94 0c0,-3.64 -1.3,-6.95 -5.56,-6.49 -3.45,0.37 -5.56,2.92 -5.56,5.85z"/>
   <path class="fil1" d="M61.56 38.34l-4.45 0c0.64,-2.74 4.19,-3.05 4.45,0zm-7.94 1.27c0,4.46 3.99,7.46 8.94,5.78 1.4,-0.48 1.18,-0.66 2.18,-1.33 -0.46,-0.68 -0.73,-0.93 -0.96,-1.9 -2.37,0.19 -0.54,0.95 -4.45,0.95 -1.25,0 -3.57,-2.86 -1.58,-2.86l6.99 0c0,-10.08 -11.12,-7.23 -11.12,-0.64z"/>
   <path class="fil1" d="M93.33 30.4l0 1.91 1.27 0c0,3.39 -0.37,10.07 0.32,13.02 2.11,0.49 1.59,0.32 4.13,0.32l0 -2.54c-1.94,-0.16 -1.27,-0.82 -1.27,-6.04 0,-2.55 0.16,-5.22 -0.32,-7.3 -1.43,-0.12 -4.13,-1.06 -4.13,0.63z"/>
   <path class="fil1" d="M119.06 44.7c-5.69,0 -5.28,-9.53 -0.32,-9.53 5.34,0 4.59,9.53 0.32,9.53zm-4.13 -8.9c-0.15,-1.81 -0.73,-1.59 -2.54,-1.59l0 1.27 1.27 0 0 13.66c0,0.97 0.38,0.88 1.27,0.96l0 -6.04c0.91,0.61 1.92,1.91 3.5,1.91 7.08,0 7.14,-12.07 0.31,-12.07 -1.98,0 -2.65,1.13 -3.81,1.9z"/>
   <path class="fil1" d="M187.05 36.75l1.27 0 0 8.9 2.23 0c3,0 -2.25,-8.31 4.76,-8.9l0 -2.85c-2.57,0 -2.67,0.92 -4.13,1.9 -0.05,-2.3 -1.22,-1.9 -4.13,-1.9l0 2.85z"/>
   <path class="fil1" d="M131.14 35.17c2.01,0 3.13,1.44 3.17,3.49l-7.31 0c0.18,-2.11 1.83,-3.49 4.14,-3.49zm-5.72 4.76c0,4.24 4.64,7.61 8.95,5.11 1.18,-0.68 0.62,-0.05 0.78,-0.79 0.28,-1.26 -0.75,-0.62 -1.26,-0.37 -4.22,2.09 -6.9,-0.34 -7.2,-3.95l8.89 0 0 -1.91c0,-5.52 -10.16,-5.89 -10.16,1.91z"/>
   <path class="fil1" d="M24.59 33.76c-3.14,1.72 -0.88,6.63 2.73,4.99 3.15,-1.44 0.76,-6.91 -2.73,-4.99z"/>
   <path class="fil1" d="M12.73 33.5c-3.88,0.92 -2.57,6.39 1.4,5.43 3.27,-0.79 2.13,-6.26 -1.4,-5.43z"/>
   <path class="fil1" d="M138.76 35.8l0 9.85 0.95 0c0,-4.59 -0.6,-10.17 4.13,-10.17l0 -1.27c-3.19,0 -2.28,0.67 -4.13,1.91 -0.04,-2.03 -0.54,-1.91 -2.54,-1.91 0.15,1.75 0.27,0.96 1.59,1.59z"/>
  </g>
 </g>
</svg>
