<?xml version="1.0" encoding="UTF-8"?>
<!DOCTYPE svg PUBLIC "-//W3C//DTD SVG 1.1//EN" "http://www.w3.org/Graphics/SVG/1.1/DTD/svg11.dtd">
<!-- Creator: CorelDRAW 2019 (64-Bit) -->
<svg xmlns="http://www.w3.org/2000/svg" xml:space="preserve" width="200px" height="80px" version="1.1" style="shape-rendering:geometricPrecision; text-rendering:geometricPrecision; image-rendering:optimizeQuality; fill-rule:evenodd; clip-rule:evenodd"
viewBox="0 0 200 80"
 xmlns:xlink="http://www.w3.org/1999/xlink"
 xmlns:xodm="http://www.corel.com/coreldraw/odm/2003">
 <defs>
  <style type="text/css">
   <![CDATA[
    .fil2 {fill:#9F9F9F}
    .fil3 {fill:#F6F4FA}
    .fil1 {fill:#FEFEFE;fill-rule:nonzero}
    .fil0 {fill:#9F9F9F;fill-rule:nonzero}
   ]]>
  </style>
 </defs>
 <g id="Layer_x0020_1">
  <metadata id="CorelCorpID_0Corel-Layer"/>
  <g id="_1921279105936">
   <g>
    <polygon class="fil0" points="57.05,-42.27 71.89,-42.27 71.89,-38.48 61.36,-38.48 61.36,-32.6 69.93,-32.6 69.93,-28.85 61.36,-28.85 61.36,-19.97 57.05,-19.97 "/>
    <path class="fil0" d="M82.18 -27.71c-4.11,0.5 -5.61,1.32 -5.61,3.07 0,1.25 0.97,2.14 2.47,2.14 1.32,0 2.39,-0.61 3.14,-1.43l0 -3.78zm0 5.85c-1.18,1.43 -2.61,2.43 -4.64,2.43 -2.96,0 -5.1,-2.04 -5.1,-4.64 0,-3.03 2.21,-5.6 9.74,-5.85l0 -0.39c0,-2.22 -0.93,-3.14 -3.29,-3.14 -1.67,0 -3.71,0.75 -5.46,1.74l-0.85 -3.31c1.6,-1 4.17,-1.93 6.88,-1.93 5.07,0 7.03,2.25 6.92,6.78l0 5.89c0,1.24 0.22,1.42 1.47,1.49l-0.32 3.18c-3.14,0.35 -4.61,-0.61 -5.21,-2.25l-0.14 0z"/>
    <path class="fil0" d="M97.65 -19.43c-5.35,0 -8.53,-3.32 -8.53,-8.71 0,-5.35 3.5,-8.81 8.67,-8.81 2.25,0 4.18,0.5 5.67,1.39l-0.89 3.39c-1.36,-0.86 -2.92,-1.32 -4.46,-1.32 -3.03,0 -4.67,2.07 -4.67,5.24 0,3.36 1.89,5.32 4.67,5.32 1.71,0 3.29,-0.46 4.57,-1.28l0.68 3.42c-1.43,0.86 -3.5,1.36 -5.71,1.36z"/>
    <path class="fil0" d="M116.19 -29.89l0 -0.28c0,-2.21 -0.97,-3.61 -3.14,-3.61 -2.32,0 -3.71,1.9 -3.93,3.93l7.07 -0.04zm-7.18 2.61c0.18,2.67 2,4.49 4.93,4.49 1.75,0 3.64,-0.57 5.14,-1.49l0.53 3.49c-1.57,0.86 -3.75,1.36 -5.96,1.36 -5.28,0 -8.77,-3.36 -8.77,-8.6 0,-5.35 3.56,-8.92 8.49,-8.92 4.35,0 6.77,2.64 6.77,6.67 0,0.89 -0.14,2.03 -0.35,2.75 -0.04,0 -10.78,0.14 -10.78,0.14l0 0.11z"/>
    <path class="fil0" d="M130.74 -33.42c-1.39,0 -2.46,0.54 -3.39,1.36l0 8.31c0.79,0.61 1.86,0.93 3.11,0.93 2.81,0 4.42,-2.29 4.42,-5.35 0,-3.21 -1.53,-5.25 -4.14,-5.25zm0.11 13.95c-1.07,0 -2.61,-0.21 -3.68,-0.57l-4.03 0.61 0 -24.37 4.21 -0.57 0 9.52c1.11,-1.06 2.61,-2.1 4.6,-2.1 4.35,0 7.21,3.53 7.21,8.6 0,5.24 -3.64,8.88 -8.31,8.88z"/>
    <path class="fil0" d="M149.54 -33.6c-2.75,0 -4.25,2.22 -4.25,5.39 0,3.14 1.57,5.35 4.32,5.35 2.71,0 4.21,-2.14 4.21,-5.31 0,-3.18 -1.57,-5.43 -4.28,-5.43zm-0.07 14.17c-4.82,0 -8.32,-3.29 -8.32,-8.74 0,-5.43 3.68,-8.81 8.53,-8.81 4.85,0 8.31,3.35 8.31,8.77 0,5.39 -3.71,8.78 -8.52,8.78z"/>
    <path class="fil0" d="M168.42 -33.6c-2.75,0 -4.25,2.22 -4.25,5.39 0,3.14 1.57,5.35 4.32,5.35 2.71,0 4.21,-2.14 4.21,-5.31 0,-3.18 -1.57,-5.43 -4.28,-5.43zm-0.07 14.17c-4.82,0 -8.32,-3.29 -8.32,-8.74 0,-5.43 3.68,-8.81 8.53,-8.81 4.85,0 8.31,3.35 8.31,8.77 0,5.39 -3.71,8.78 -8.52,8.78z"/>
    <polygon class="fil0" points="183.98,-27.89 183.98,-19.97 179.77,-19.97 179.77,-43.8 183.98,-44.37 183.98,-29.1 184.06,-29.1 189.94,-36.41 194.97,-36.41 188.16,-28.6 195,-19.97 195,-19.97 189.98,-19.97 184.06,-27.89 "/>
   </g>
   <g>
    <path class="fil0" d="M37.13 -50.01l-30.25 0c-1.04,0 -1.88,0.84 -1.88,1.88l0 30.25c0,1.04 0.84,1.88 1.88,1.88l30.25 0c1.04,0 1.88,-0.84 1.88,-1.88l0 -30.25c0,-1.04 -0.84,-1.88 -1.88,-1.88z"/>
    <path class="fil1" d="M32.88 -29.17l0.67 -5.13 -5.09 0 0 -3.28c0,-1.49 0.42,-2.5 2.55,-2.5l2.72 0 0 -4.59c-0.47,-0.06 -2.09,-0.2 -3.96,-0.2 -3.92,0 -6.61,2.39 -6.61,6.78l0 3.79 -4.43 0 0 5.13 4.43 0 0 13.17 5.3 0 0 -13.17 4.42 0z"/>
   </g>
  </g>
  <g id="_1921279134288">
   <path class="fil2" d="M50.64 44.56c0.56,-4.59 1.63,-8.79 4.82,-10.83 8.06,-5.2 15.58,9.24 6.27,12.93 -4.52,1.79 -7.88,-1.21 -11.09,-2.1zm-41.58 -23.26c0,6.19 -0.4,13.99 0.01,19.97 1.3,18.95 30.16,17.68 28.31,-3.19l1.66 2.29c0.39,0.7 0.7,1.35 1.07,1.97 1.05,1.8 1.45,2.22 2.54,3.79l-4.46 20.87 7.19 -0.09c1.05,-1.54 0.82,-1.56 1.23,-3.87l2.24 -11.07c6.71,2.35 12.76,4.97 18.97,-0.41 12.94,-11.22 1.42,-28.47 -11.35,-26 -9.32,1.81 -9.85,8.58 -12.05,11.31 -2.63,-4.01 -5.66,-10.2 -6.82,-15.6l-7.52 0c-0.14,6.02 0.97,20.78 -1.55,23.74 -2.46,2.88 -8.57,3.08 -10.93,-0.74 -1.85,-3 -1.06,-17.4 -1.19,-22.98l-7.35 0.01z"/>
   <path class="fil2" d="M84.98 44.81l-5.1 -18.59 -6.21 0.31 8.03 27.39 6.24 0 4.51 -18.25c1.29,1.64 2.34,7.03 2.82,9.09 0.73,3.13 1.51,6.08 2.44,9.1l6.17 0.13 7.76 -27.76 -6.01 0.14 -5.28 18.35 -4.67 -18.39 -5.95 -0.1 -4.75 18.58z"/>
   <path class="fil2" d="M165.76 53.6l6.25 0.31 0.06 -12.95c2.91,0.36 3.34,1.81 6.11,5.79 1.54,2.22 3.36,4.93 5.16,6.98l7.77 0.13c-2.02,-1.59 -3.97,-5.44 -5.67,-7.64l-5.25 -6.76c1,-1.43 1.11,-1.21 2.39,-2.31 2.8,-2.4 5.06,-6.59 4.72,-10.9l-5.99 0c-1.04,5.63 -3.25,8 -9.3,8.39l-0.01 -21.58 -6.12 -0.06 -0.12 40.6z"/>
   <path class="fil2" d="M124.37 32.05c11.36,-3.16 14.97,13.27 5.01,16.17 -11.47,3.33 -15.72,-13.2 -5.01,-16.17zm-12.17 9.83c0.68,7.43 7.87,13.66 16.28,12.71 7.46,-0.84 13.6,-7.8 12.7,-16.33 -1.45,-13.68 -19.43,-16.62 -25.76,-7.64 -2,2.83 -3.64,6.6 -3.22,11.26z"/>
   <path class="fil2" d="M151.4 53.87c0.34,-4.37 -0.43,-11.68 0.34,-15.48 1.23,-6.15 7.2,-5.77 9.8,-6.01l-0.11 -5.85c-3.91,-0.83 -7.12,0.38 -9.01,3.51 -0.2,-0.26 -1.37,-1.17 -0.95,-3.79l-6.27 0 0.04 27.67 6.16 -0.05z"/>
   <path class="fil3" d="M124.37 32.05c-10.71,2.97 -6.46,19.5 5.01,16.17 9.96,-2.9 6.35,-19.33 -5.01,-16.17z"/>
   <path class="fil3" d="M50.64 44.56c3.21,0.89 6.57,3.89 11.09,2.1 9.31,-3.69 1.79,-18.13 -6.27,-12.93 -3.19,2.04 -4.26,6.24 -4.82,10.83z"/>
  </g>
 </g>
</svg>
